<mxfile host="app.diagrams.net" modified="2021-09-18T17:57:01.757Z" agent="5.0 (Windows NT 10.0; Win64; x64) AppleWebKit/537.36 (KHTML, like Gecko) Chrome/93.0.4577.63 Safari/537.36 Edg/93.0.961.47" etag="CQV4LcXTyGEnShmQZg9s" version="15.2.9" type="github">
  <diagram id="C5RBs43oDa-KdzZeNtuy" name="Page-1">
    <mxGraphModel dx="1422" dy="794" grid="1" gridSize="10" guides="1" tooltips="1" connect="1" arrows="1" fold="1" page="1" pageScale="1" pageWidth="827" pageHeight="1169" math="0" shadow="0">
      <root>
        <mxCell id="WIyWlLk6GJQsqaUBKTNV-0" />
        <mxCell id="WIyWlLk6GJQsqaUBKTNV-1" parent="WIyWlLk6GJQsqaUBKTNV-0" />
        <mxCell id="WIyWlLk6GJQsqaUBKTNV-2" value="" style="rounded=0;html=1;jettySize=auto;orthogonalLoop=1;fontSize=11;endArrow=block;endFill=0;endSize=8;strokeWidth=1;shadow=0;labelBackgroundColor=none;edgeStyle=orthogonalEdgeStyle;" parent="WIyWlLk6GJQsqaUBKTNV-1" source="WIyWlLk6GJQsqaUBKTNV-3" target="WIyWlLk6GJQsqaUBKTNV-6" edge="1">
          <mxGeometry relative="1" as="geometry" />
        </mxCell>
        <mxCell id="WIyWlLk6GJQsqaUBKTNV-3" value="Jarra de Leche" style="rounded=1;whiteSpace=wrap;html=1;fontSize=12;glass=0;strokeWidth=1;shadow=0;" parent="WIyWlLk6GJQsqaUBKTNV-1" vertex="1">
          <mxGeometry x="160" y="80" width="120" height="40" as="geometry" />
        </mxCell>
        <mxCell id="WIyWlLk6GJQsqaUBKTNV-4" value="Falso" style="rounded=0;html=1;jettySize=auto;orthogonalLoop=1;fontSize=11;endArrow=block;endFill=0;endSize=8;strokeWidth=1;shadow=0;labelBackgroundColor=none;edgeStyle=orthogonalEdgeStyle;entryX=0.5;entryY=0;entryDx=0;entryDy=0;" parent="WIyWlLk6GJQsqaUBKTNV-1" source="WIyWlLk6GJQsqaUBKTNV-6" edge="1">
          <mxGeometry y="30" relative="1" as="geometry">
            <mxPoint as="offset" />
            <mxPoint x="220" y="320" as="targetPoint" />
          </mxGeometry>
        </mxCell>
        <mxCell id="WIyWlLk6GJQsqaUBKTNV-5" value="Verdadero" style="edgeStyle=orthogonalEdgeStyle;rounded=0;html=1;jettySize=auto;orthogonalLoop=1;fontSize=11;endArrow=block;endFill=0;endSize=8;strokeWidth=1;shadow=0;labelBackgroundColor=none;" parent="WIyWlLk6GJQsqaUBKTNV-1" source="WIyWlLk6GJQsqaUBKTNV-6" target="WIyWlLk6GJQsqaUBKTNV-7" edge="1">
          <mxGeometry y="10" relative="1" as="geometry">
            <mxPoint as="offset" />
          </mxGeometry>
        </mxCell>
        <mxCell id="WIyWlLk6GJQsqaUBKTNV-6" value="&lt;font style=&quot;font-size: 11px&quot;&gt;&lt;a href=&quot;https://www.google.com/url?sa=t&amp;amp;rct=j&amp;amp;q=&amp;amp;esrc=s&amp;amp;source=web&amp;amp;cd=&amp;amp;cad=rja&amp;amp;uact=8&amp;amp;ved=2ahUKEwjzkrjUhonzAhUkRjABHebtBBMQFnoECAsQAQ&amp;amp;url=https%3A%2F%2Fes.wikipedia.org%2Fwiki%2FPH-metro&amp;amp;usg=AOvVaw2qaGhiH06K_yDmZEgzHbcq&quot; style=&quot;outline: 0px ; text-align: left ; background-color: rgb(255 , 255 , 255)&quot;&gt;&lt;h3 class=&quot;LC20lb DKV0Md&quot; style=&quot;font-weight: normal ; margin: 0px 0px 3px ; padding: 5px 0px 0px ; line-height: 1.3 ; display: inline-block&quot;&gt;&lt;font&gt;pH-metro&lt;/font&gt;&lt;/h3&gt;&lt;/a&gt;&lt;br&gt;=&amp;gt; 6.6 &amp;amp;&amp;amp; 6.8&amp;lt;=&lt;/font&gt;" style="rhombus;whiteSpace=wrap;html=1;shadow=0;fontFamily=Helvetica;fontSize=12;align=center;strokeWidth=1;spacing=6;spacingTop=-4;" parent="WIyWlLk6GJQsqaUBKTNV-1" vertex="1">
          <mxGeometry x="170" y="170" width="100" height="80" as="geometry" />
        </mxCell>
        <mxCell id="OSh77inhAaUNDit09P8H-7" style="edgeStyle=orthogonalEdgeStyle;rounded=0;orthogonalLoop=1;jettySize=auto;html=1;exitX=1;exitY=0.5;exitDx=0;exitDy=0;" edge="1" parent="WIyWlLk6GJQsqaUBKTNV-1" source="WIyWlLk6GJQsqaUBKTNV-7" target="OSh77inhAaUNDit09P8H-6">
          <mxGeometry relative="1" as="geometry" />
        </mxCell>
        <mxCell id="WIyWlLk6GJQsqaUBKTNV-7" value="Leche en buen estado" style="rounded=1;whiteSpace=wrap;html=1;fontSize=12;glass=0;strokeWidth=1;shadow=0;" parent="WIyWlLk6GJQsqaUBKTNV-1" vertex="1">
          <mxGeometry x="340" y="190" width="120" height="40" as="geometry" />
        </mxCell>
        <mxCell id="OSh77inhAaUNDit09P8H-5" value="Verdadero" style="edgeStyle=orthogonalEdgeStyle;rounded=0;orthogonalLoop=1;jettySize=auto;html=1;exitX=1;exitY=0.5;exitDx=0;exitDy=0;entryX=0;entryY=0.5;entryDx=0;entryDy=0;" edge="1" parent="WIyWlLk6GJQsqaUBKTNV-1" source="OSh77inhAaUNDit09P8H-3" target="OSh77inhAaUNDit09P8H-4">
          <mxGeometry relative="1" as="geometry" />
        </mxCell>
        <mxCell id="OSh77inhAaUNDit09P8H-9" value="Falso" style="edgeStyle=orthogonalEdgeStyle;rounded=0;orthogonalLoop=1;jettySize=auto;html=1;exitX=0;exitY=0.5;exitDx=0;exitDy=0;entryX=0;entryY=0.5;entryDx=0;entryDy=0;" edge="1" parent="WIyWlLk6GJQsqaUBKTNV-1" source="OSh77inhAaUNDit09P8H-3" target="WIyWlLk6GJQsqaUBKTNV-6">
          <mxGeometry relative="1" as="geometry" />
        </mxCell>
        <mxCell id="OSh77inhAaUNDit09P8H-3" value="&lt;font style=&quot;font-size: 11px&quot;&gt;&lt;a href=&quot;https://www.google.com/url?sa=t&amp;amp;rct=j&amp;amp;q=&amp;amp;esrc=s&amp;amp;source=web&amp;amp;cd=&amp;amp;cad=rja&amp;amp;uact=8&amp;amp;ved=2ahUKEwjzkrjUhonzAhUkRjABHebtBBMQFnoECAsQAQ&amp;amp;url=https%3A%2F%2Fes.wikipedia.org%2Fwiki%2FPH-metro&amp;amp;usg=AOvVaw2qaGhiH06K_yDmZEgzHbcq&quot; style=&quot;outline: 0px ; text-align: left ; background-color: rgb(255 , 255 , 255)&quot;&gt;&lt;h3 class=&quot;LC20lb DKV0Md&quot; style=&quot;font-weight: normal ; margin: 0px 0px 3px ; padding: 5px 0px 0px ; line-height: 1.3 ; display: inline-block&quot;&gt;&lt;font&gt;pH-metro&lt;/font&gt;&lt;/h3&gt;&lt;/a&gt;&lt;br&gt;=! 6.6 - 6.8&lt;/font&gt;" style="rhombus;whiteSpace=wrap;html=1;shadow=0;fontFamily=Helvetica;fontSize=12;align=center;strokeWidth=1;spacing=6;spacingTop=-4;" vertex="1" parent="WIyWlLk6GJQsqaUBKTNV-1">
          <mxGeometry x="170" y="320" width="100" height="80" as="geometry" />
        </mxCell>
        <mxCell id="OSh77inhAaUNDit09P8H-8" style="edgeStyle=orthogonalEdgeStyle;rounded=0;orthogonalLoop=1;jettySize=auto;html=1;exitX=1;exitY=0.5;exitDx=0;exitDy=0;" edge="1" parent="WIyWlLk6GJQsqaUBKTNV-1" source="OSh77inhAaUNDit09P8H-4">
          <mxGeometry relative="1" as="geometry">
            <mxPoint x="540" y="360" as="targetPoint" />
          </mxGeometry>
        </mxCell>
        <mxCell id="OSh77inhAaUNDit09P8H-4" value="Leche en mal estado" style="rounded=1;whiteSpace=wrap;html=1;" vertex="1" parent="WIyWlLk6GJQsqaUBKTNV-1">
          <mxGeometry x="340" y="335" width="120" height="50" as="geometry" />
        </mxCell>
        <mxCell id="OSh77inhAaUNDit09P8H-6" value="Notificacion del Estado" style="rounded=1;whiteSpace=wrap;html=1;" vertex="1" parent="WIyWlLk6GJQsqaUBKTNV-1">
          <mxGeometry x="480" y="450" width="120" height="60" as="geometry" />
        </mxCell>
      </root>
    </mxGraphModel>
  </diagram>
</mxfile>
